<svg version="1.0" xmlns="http://www.w3.org/2000/svg"
 width="30.000000pt" height="30.000000pt" viewBox="0 0 30.000000 30.000000"
 preserveAspectRatio="xMidYMid meet">

<g transform="translate(0.000000,30.000000) scale(0.100000,-0.100000)"
fill="#fff" stroke="none">
<path d="M195 265 c-5 -2 -31 -6 -57 -10 l-48 -6 0 -79 c0 -78 0 -79 -28 -82
-21 -2 -27 -8 -27 -28 0 -18 6 -26 23 -28 41 -6 52 14 52 94 0 64 2 74 18 74
9 0 34 3 55 6 35 6 37 5 37 -20 0 -14 5 -26 10 -26 6 0 10 25 10 55 0 55 -7
63 -45 50z"/>
<path d="M182 117 c-28 -30 -28 -68 1 -95 30 -28 68 -28 95 1 28 30 28 68 -1
95 -30 28 -68 28 -95 -1z m58 -22 c0 -8 7 -15 15 -15 8 0 15 -4 15 -10 0 -5
-7 -10 -15 -10 -8 0 -15 -7 -15 -15 0 -8 -4 -15 -10 -15 -5 0 -10 7 -10 15 0
8 -7 15 -15 15 -8 0 -15 5 -15 10 0 6 7 10 15 10 8 0 15 7 15 15 0 8 5 15 10
15 6 0 10 -7 10 -15z"/>
</g>
</svg>
