<?xml version="1.0" standalone="no"?>
<!DOCTYPE svg PUBLIC "-//W3C//DTD SVG 20010904//EN"
 "http://www.w3.org/TR/2001/REC-SVG-20010904/DTD/svg10.dtd">
<svg version="1.0" xmlns="http://www.w3.org/2000/svg"
 width="454.000000pt" height="454.000000pt" viewBox="0 0 454.000000 454.000000"
 preserveAspectRatio="xMidYMid meet">

<g transform="translate(0.000000,454.000000) scale(0.100000,-0.100000)"
fill="#fff" stroke="none">
<path d="M1645 4526 c-119 -29 -212 -107 -268 -226 -27 -57 -31 -77 -35 -176
l-4 -112 -257 -4 c-243 -5 -260 -6 -336 -31 -109 -36 -196 -89 -274 -168 -77
-78 -122 -149 -159 -251 -25 -69 -27 -85 -30 -294 -3 -189 -1 -226 12 -253 25
-47 62 -61 165 -61 l89 0 6 -37 c3 -21 19 -189 36 -373 16 -184 66 -735 110
-1225 43 -490 84 -923 90 -963 23 -168 135 -295 295 -336 52 -14 200 -16 1185
-16 985 0 1133 2 1185 16 160 41 272 168 295 336 6 40 47 473 90 963 44 490
94 1041 110 1225 17 184 33 352 36 373 l6 37 89 0 c103 0 140 14 165 61 13 27
15 64 12 253 -3 209 -5 225 -30 294 -37 102 -82 173 -159 251 -78 79 -165 132
-274 168 -76 25 -93 26 -336 31 l-257 4 -4 112 c-4 99 -8 119 -35 176 -57 122
-157 203 -281 229 -77 16 -1169 14 -1237 -3z m1221 -270 c50 -30 67 -70 72
-163 l5 -83 -673 0 -673 0 5 83 c6 114 34 158 113 178 17 4 275 7 575 6 515
-2 547 -3 576 -21z m850 -533 c188 -63 284 -212 284 -440 l0 -73 -1730 0
-1730 0 0 73 c0 227 91 369 279 439 42 15 163 17 1447 17 1279 1 1405 0 1450
-16z m-1 -782 c3 -6 -3 -108 -15 -228 -22 -248 -171 -1896 -195 -2168 -17
-192 -25 -220 -78 -259 l-28 -21 -1129 0 -1129 0 -28 21 c-52 39 -61 67 -78
259 -28 312 -174 1940 -195 2168 -12 120 -18 222 -15 228 8 12 2882 12 2890 0z"/>
<path d="M1456 2670 c-39 -12 -74 -47 -85 -85 -5 -18 -5 -105 0 -201 4 -93 15
-331 24 -529 50 -1159 54 -1226 75 -1261 25 -40 88 -67 136 -58 42 8 90 51
100 90 4 16 -2 250 -15 519 -12 270 -31 701 -42 960 -17 395 -23 475 -37 499
-33 56 -97 84 -156 66z"/>
<path d="M2240 2674 c-41 -14 -62 -31 -80 -60 -20 -31 -20 -54 -20 -1010 0
-936 1 -980 19 -1007 28 -43 60 -61 111 -61 51 0 83 18 111 61 18 27 19 71 19
1008 0 937 -1 981 -19 1008 -10 15 -27 34 -38 42 -22 16 -81 26 -103 19z"/>
<path d="M3003 2669 c-34 -10 -80 -58 -88 -92 -3 -12 -14 -229 -25 -482 -10
-253 -29 -680 -41 -950 -13 -269 -19 -503 -15 -519 10 -39 58 -82 100 -90 48
-9 111 18 136 58 21 35 25 102 75 1261 9 198 20 436 24 529 5 99 5 182 -1 202
-8 32 -58 84 -81 84 -7 0 -21 2 -32 4 -11 3 -34 0 -52 -5z"/>
</g>
</svg>
