<?xml version="1.0" standalone="no"?>
<!DOCTYPE svg PUBLIC "-//W3C//DTD SVG 20010904//EN"
 "http://www.w3.org/TR/2001/REC-SVG-20010904/DTD/svg10.dtd">
<svg version="1.0" xmlns="http://www.w3.org/2000/svg"
 width="48.000000pt" height="48.000000pt" viewBox="0 0 48.000000 48.000000"
 preserveAspectRatio="xMidYMid meet">

<g transform="translate(0.000000,48.000000) scale(0.100000,-0.100000)"
fill="#fff" stroke="none">
<path d="M72 418 c-8 -8 -12 -63 -12 -180 0 -187 0 -188 74 -188 62 0 66 12
66 186 0 88 -4 164 -10 175 -8 15 -21 19 -58 19 -27 0 -53 -5 -60 -12z"/>
<path d="M292 418 c-8 -8 -12 -63 -12 -180 0 -187 0 -188 74 -188 62 0 66 12
66 186 0 88 -4 164 -10 175 -8 15 -21 19 -58 19 -27 0 -53 -5 -60 -12z"/>
</g>
</svg>
