<?xml version="1.0" standalone="no"?>
<!DOCTYPE svg PUBLIC "-//W3C//DTD SVG 20010904//EN"
 "http://www.w3.org/TR/2001/REC-SVG-20010904/DTD/svg10.dtd">
<svg version="1.0" xmlns="http://www.w3.org/2000/svg"
 width="64.000000pt" height="64.000000pt" viewBox="0 0 64.000000 64.000000"
 preserveAspectRatio="xMidYMid meet">

<g transform="translate(0.000000,64.000000) scale(0.100000,-0.100000)"
fill="#fff" stroke="none">
<path d="M530 528 c0 -7 12 -25 27 -40 l27 -28 -82 0 c-44 0 -93 -5 -107 -12
-14 -6 -62 -57 -106 -112 -45 -56 -91 -106 -102 -113 -12 -7 -57 -12 -99 -13
-63 0 -78 -3 -78 -15 0 -12 16 -15 80 -15 43 0 91 5 105 12 14 6 62 57 106
112 45 56 91 106 102 113 12 7 58 12 101 13 l80 0 -27 -28 c-26 -27 -35 -52
-20 -52 11 0 93 83 93 94 0 12 -81 96 -92 96 -4 0 -8 -5 -8 -12z"/>
<path d="M10 445 c0 -12 15 -15 78 -15 58 0 85 -5 109 -19 29 -19 43 -18 43 1
0 4 -15 17 -32 28 -43 26 -198 30 -198 5z"/>
<path d="M530 278 c0 -7 12 -25 27 -40 l27 -28 -80 0 c-60 0 -86 5 -111 19
-29 19 -43 18 -43 -1 0 -4 15 -17 33 -28 25 -16 50 -20 116 -20 l85 0 -33 -34
c-22 -23 -29 -36 -21 -41 12 -8 100 71 100 89 0 12 -81 96 -92 96 -4 0 -8 -5
-8 -12z"/>
</g>
</svg>
